<svg width="13" height="13" viewBox="0 0 13 13" fill="none" xmlns="http://www.w3.org/2000/svg">
<path d="M6.5 0.5C5.31331 0.5 4.15328 0.851894 3.16658 1.51118C2.17989 2.17047 1.41085 3.10754 0.956725 4.2039C0.5026 5.30025 0.38378 6.50666 0.615291 7.67054C0.846802 8.83443 1.41825 9.90352 2.25736 10.7426C3.09648 11.5818 4.16557 12.1532 5.32946 12.3847C6.49335 12.6162 7.69975 12.4974 8.7961 12.0433C9.89246 11.5891 10.8295 10.8201 11.4888 9.83342C12.1481 8.84672 12.5 7.68669 12.5 6.5C12.4983 4.90922 11.8656 3.38407 10.7408 2.25921C9.61593 1.13436 8.09078 0.50168 6.5 0.5ZM8.21116 6.82654L5.90346 9.13423C5.86058 9.17711 5.80967 9.21113 5.75365 9.23433C5.69762 9.25754 5.63757 9.26949 5.57692 9.26949C5.51628 9.26949 5.45623 9.25754 5.4002 9.23433C5.34418 9.21113 5.29327 9.17711 5.25039 9.13423C5.2075 9.09135 5.17349 9.04044 5.15028 8.98441C5.12707 8.92838 5.11513 8.86833 5.11513 8.80769C5.11513 8.74705 5.12707 8.687 5.15028 8.63097C5.17349 8.57494 5.2075 8.52403 5.25039 8.48115L7.23212 6.5L5.25039 4.51885C5.16378 4.43224 5.11513 4.31478 5.11513 4.19231C5.11513 4.06983 5.16378 3.95237 5.25039 3.86577C5.33699 3.77917 5.45445 3.73051 5.57692 3.73051C5.6994 3.73051 5.81686 3.77917 5.90346 3.86577L8.21116 6.17346C8.25407 6.21632 8.28811 6.26723 8.31134 6.32326C8.33456 6.37929 8.34652 6.43935 8.34652 6.5C8.34652 6.56065 8.33456 6.62071 8.31134 6.67674C8.28811 6.73277 8.25407 6.78367 8.21116 6.82654Z" fill="#167E62"/>
</svg>
