<svg width="16" height="17" viewBox="0 0 16 17" fill="none" xmlns="http://www.w3.org/2000/svg">
<g clip-path="url(#clip0_8_150)">
<path d="M8 2.34448C6.71442 2.34448 5.45772 2.7257 4.3888 3.43993C3.31988 4.15416 2.48676 5.16932 1.99479 6.35704C1.50282 7.54476 1.37409 8.85169 1.6249 10.1126C1.8757 11.3734 2.49477 12.5316 3.40381 13.4407C4.31285 14.3497 5.47104 14.9688 6.73192 15.2196C7.99279 15.4704 9.29973 15.3417 10.4874 14.8497C11.6752 14.3577 12.6903 13.5246 13.4046 12.4557C14.1188 11.3868 14.5 10.1301 14.5 8.84448C14.4982 7.12113 13.8128 5.46889 12.5942 4.2503C11.3756 3.03171 9.72335 2.3463 8 2.34448ZM10.8538 8.19823L8.35375 10.6982C8.30732 10.7447 8.25217 10.7816 8.19147 10.8068C8.13077 10.8319 8.06571 10.8449 8 10.8449C7.9343 10.8449 7.86923 10.8319 7.80853 10.8068C7.74783 10.7816 7.69269 10.7447 7.64625 10.6982L5.14625 8.19823C5.05243 8.10441 4.99972 7.97716 4.99972 7.84448C4.99972 7.7118 5.05243 7.58455 5.14625 7.49073C5.24007 7.39691 5.36732 7.3442 5.5 7.3442C5.63268 7.3442 5.75993 7.39691 5.85375 7.49073L8 9.63761L10.1463 7.49073C10.1927 7.44428 10.2479 7.40743 10.3086 7.38229C10.3693 7.35714 10.4343 7.3442 10.5 7.3442C10.5657 7.3442 10.6308 7.35714 10.6915 7.38229C10.7521 7.40743 10.8073 7.44428 10.8538 7.49073C10.9002 7.53719 10.9371 7.59234 10.9622 7.65303C10.9873 7.71373 11.0003 7.77878 11.0003 7.84448C11.0003 7.91018 10.9873 7.97523 10.9622 8.03593C10.9371 8.09663 10.9002 8.15178 10.8538 8.19823Z" fill="#167E62"/>
</g>
<defs>
<clipPath id="clip0_8_150">
<rect width="16" height="16" fill="white" transform="translate(0 0.844482)"/>
</clipPath>
</defs>
</svg>
