<svg width="16" height="17" viewBox="0 0 16 17" fill="none" xmlns="http://www.w3.org/2000/svg">
<g clip-path="url(#clip0_8_146)">
<path d="M8 15.2485C6.71442 15.2485 5.45772 14.8673 4.3888 14.1531C3.31988 13.4389 2.48676 12.4237 1.99479 11.236C1.50282 10.0483 1.37409 8.74132 1.6249 7.48045C1.8757 6.21957 2.49477 5.06138 3.40381 4.15234C4.31285 3.2433 5.47104 2.62424 6.73192 2.37343C7.99279 2.12263 9.29973 2.25135 10.4874 2.74332C11.6752 3.23529 12.6903 4.06841 13.4046 5.13733C14.1188 6.20625 14.5 7.46296 14.5 8.74854C14.4982 10.4719 13.8128 12.1241 12.5942 13.3427C11.3756 14.5613 9.72335 15.2467 8 15.2485ZM10.8538 9.39478L8.35375 6.89478C8.30732 6.8483 8.25217 6.81142 8.19147 6.78625C8.13077 6.76109 8.06571 6.74814 8 6.74814C7.9343 6.74814 7.86923 6.76109 7.80853 6.78625C7.74783 6.81142 7.69269 6.8483 7.64625 6.89478L5.14625 9.39478C5.05243 9.48861 4.99972 9.61585 4.99972 9.74854C4.99972 9.88122 5.05243 10.0085 5.14625 10.1023C5.24007 10.1961 5.36732 10.2488 5.5 10.2488C5.63268 10.2488 5.75993 10.1961 5.85375 10.1023L8 7.95541L10.1463 10.1023C10.1927 10.1487 10.2479 10.1856 10.3086 10.2107C10.3693 10.2359 10.4343 10.2488 10.5 10.2488C10.5657 10.2488 10.6308 10.2359 10.6915 10.2107C10.7521 10.1856 10.8073 10.1487 10.8538 10.1023C10.9002 10.0558 10.9371 10.0007 10.9622 9.93998C10.9873 9.87929 11.0003 9.81423 11.0003 9.74854C11.0003 9.68284 10.9873 9.61778 10.9622 9.55709C10.9371 9.49639 10.9002 9.44124 10.8538 9.39478Z" fill="#167E62"/>
</g>
<defs>
<clipPath id="clip0_8_146">
<rect width="16" height="16" fill="white" transform="matrix(1 0 0 -1 0 16.7485)"/>
</clipPath>
</defs>
</svg>
