<svg width="12" height="7" viewBox="0 0 12 7" fill="none" xmlns="http://www.w3.org/2000/svg">
<path d="M11.4618 0.80875C11.424 0.71738 11.3599 0.639279 11.2777 0.584322C11.1955 0.529365 11.0988 0.50002 10.9999 0.5H0.999905C0.900958 0.499922 0.804211 0.529205 0.721914 0.58414C0.639617 0.639075 0.57547 0.717193 0.537594 0.808605C0.499718 0.900016 0.489816 1.00061 0.509141 1.09765C0.528466 1.1947 0.57615 1.28382 0.646155 1.35375L5.64616 6.35375C5.69259 6.40024 5.74774 6.43712 5.80844 6.46228C5.86913 6.48744 5.9342 6.50039 5.99991 6.50039C6.06561 6.50039 6.13068 6.48744 6.19138 6.46228C6.25207 6.43712 6.30722 6.40024 6.35366 6.35375L11.3537 1.35375C11.4236 1.28379 11.4711 1.19466 11.4904 1.09765C11.5096 1.00064 11.4997 0.900102 11.4618 0.80875Z" fill="#323232"/>
</svg>
