<svg width="28" height="31" viewBox="0 0 28 31" fill="none" xmlns="http://www.w3.org/2000/svg">
<path opacity="0.6" d="M1.5453 5.46949C1 6.2494 1 8.56765 1 13.2042V15.4875C1 23.6627 7.12294 27.63 10.9646 29.3145C12.0067 29.7715 12.5277 30 14 30C15.4723 30 15.9933 29.7715 17.0354 29.3146C20.8771 27.63 27 23.6627 27 15.4875V13.2042C27 8.56765 27 6.2494 26.4547 5.46949C25.9094 4.68958 23.738 3.94344 19.3951 2.45115L18.5677 2.16684C16.3039 1.38895 15.172 1 14 1C12.828 1 11.6961 1.38895 9.43227 2.16684L8.60487 2.45115L8.60487 2.45115C4.26202 3.94344 2.0906 4.68958 1.5453 5.46949Z" stroke="#42D499"/>
<path d="M5.37752 8.08241C5 8.62028 5 10.2191 5 13.4167V14.9914C5 20.6294 9.23896 23.3655 11.8986 24.5273C12.62 24.8424 12.9807 25 14 25C15.0193 25 15.38 24.8424 16.1014 24.5273C18.761 23.3655 23 20.6294 23 14.9914V13.4167C23 10.2191 23 8.62028 22.6225 8.08241C22.245 7.54454 20.7417 7.02996 17.7351 6.00079L17.1623 5.80472C15.595 5.26824 14.8114 5 14 5C13.1886 5 12.405 5.26824 10.8377 5.80472L10.2649 6.00079C7.25832 7.02996 5.75503 7.54454 5.37752 8.08241Z" fill="#12624C" stroke="#FF91EE" stroke-width="1.5"/>
<path d="M17.0595 13.4995C17.3353 13.1905 17.3085 12.7164 16.9995 12.4406C16.6905 12.1647 16.2164 12.1915 15.9406 12.5005L12.9286 15.8739L12.0595 14.9005C11.7836 14.5915 11.3095 14.5647 11.0005 14.8406C10.6915 15.1164 10.6647 15.5905 10.9406 15.8995L12.3691 17.4995C12.5114 17.6589 12.7149 17.75 12.9286 17.75C13.1422 17.75 13.3457 17.6589 13.488 17.4995L17.0595 13.4995Z" fill="#62E29F"/>
</svg>
