<svg width="20" height="20" viewBox="0 0 20 20" fill="none" xmlns="http://www.w3.org/2000/svg">
<g clip-path="url(#clip0_1_986)">
<path opacity="0.2" d="M14.375 9.375V11.25H1.875V14.375C1.875 14.5408 1.94085 14.6997 2.05806 14.8169C2.17527 14.9342 2.33424 15 2.5 15H4.375C4.375 14.5027 4.57254 14.0258 4.92417 13.6742C5.27581 13.3225 5.75272 13.125 6.25 13.125C6.74728 13.125 7.22419 13.3225 7.57583 13.6742C7.92746 14.0258 8.125 14.5027 8.125 15H13.125C13.125 14.5027 13.3225 14.0258 13.6742 13.6742C14.0258 13.3225 14.5027 13.125 15 13.125C15.4973 13.125 15.9742 13.3225 16.3258 13.6742C16.6775 14.0258 16.875 14.5027 16.875 15H18.75C18.9158 15 19.0747 14.9342 19.1919 14.8169C19.3092 14.6997 19.375 14.5408 19.375 14.375V9.375H14.375Z" fill="#926120"/>
<path d="M14.375 6.25H17.7016C17.8261 6.24994 17.9478 6.28709 18.0511 6.35669C18.1544 6.42629 18.2345 6.52517 18.2812 6.64063L19.375 9.375" stroke="#926120" stroke-width="1.25" stroke-linecap="round" stroke-linejoin="round"/>
<path d="M1.875 11.25H14.375" stroke="#926120" stroke-width="1.25" stroke-linecap="round" stroke-linejoin="round"/>
<path d="M15 16.875C16.0355 16.875 16.875 16.0355 16.875 15C16.875 13.9645 16.0355 13.125 15 13.125C13.9645 13.125 13.125 13.9645 13.125 15C13.125 16.0355 13.9645 16.875 15 16.875Z" stroke="#926120" stroke-width="1.25" stroke-linecap="round" stroke-linejoin="round"/>
<path d="M6.25 16.875C7.28553 16.875 8.125 16.0355 8.125 15C8.125 13.9645 7.28553 13.125 6.25 13.125C5.21447 13.125 4.375 13.9645 4.375 15C4.375 16.0355 5.21447 16.875 6.25 16.875Z" stroke="#926120" stroke-width="1.25" stroke-linecap="round" stroke-linejoin="round"/>
<path d="M13.125 15H8.125" stroke="#926120" stroke-width="1.25" stroke-linecap="round" stroke-linejoin="round"/>
<path d="M14.375 9.375H19.375V14.375C19.375 14.5408 19.3092 14.6997 19.1919 14.8169C19.0747 14.9342 18.9158 15 18.75 15H16.875" stroke="#926120" stroke-width="1.25" stroke-linecap="round" stroke-linejoin="round"/>
<path d="M4.375 15H2.5C2.33424 15 2.17527 14.9342 2.05806 14.8169C1.94085 14.6997 1.875 14.5408 1.875 14.375V5.625C1.875 5.45924 1.94085 5.30027 2.05806 5.18306C2.17527 5.06585 2.33424 5 2.5 5H14.375V13.232" stroke="#926120" stroke-width="1.25" stroke-linecap="round" stroke-linejoin="round"/>
</g>
<defs>
<clipPath id="clip0_1_986">
<rect width="20" height="20" fill="white"/>
</clipPath>
</defs>
</svg>
